PathFileType	4	(X/Y/Z)	C:/Users/opensim2020/Desktop/walking_exp_matlab/subject06_walking23_straight_03.trc	
DataRate	CameraRate	NumFrames	NumMarkers	Units	OrigDataRate	OrigDataStartFrame	OrigNumFrames	
100.00	100.00	4	45	mm	100.00	1775	94	
Frame#	Time	LFHD			RFHD			LBHD			RBHD			C7			T10			CLAV			STRN			RBAK			LSHO			LUPA			LELB			LFRM			LWRA			LWRB			LFIN			RSHO			RUPA			RELB			RFRM			RWRA			RWRB			RFIN			LASI			RASI			LPSI			RPSI			LTHI			LKNE			LTIB			LANK			LHEE			LTOE			RTHI			RKNE			RTIB			RANK			RHEE			RTOE			*39			*40			*41			*42			*43			*44			
		X1	Y1	Z1	X2	Y2	Z2	X3	Y3	Z3	X4	Y4	Z4	X5	Y5	Z5	X6	Y6	Z6	X7	Y7	Z7	X8	Y8	Z8	X9	Y9	Z9	X10	Y10	Z10	X11	Y11	Z11	X12	Y12	Z12	X13	Y13	Z13	X14	Y14	Z14	X15	Y15	Z15	X16	Y16	Z16	X17	Y17	Z17	X18	Y18	Z18	X19	Y19	Z19	X20	Y20	Z20	X21	Y21	Z21	X22	Y22	Z22	X23	Y23	Z23	X24	Y24	Z24	X25	Y25	Z25	X26	Y26	Z26	X27	Y27	Z27	X28	Y28	Z28	X29	Y29	Z29	X30	Y30	Z30	X31	Y31	Z31	X32	Y32	Z32	X33	Y33	Z33	X34	Y34	Z34	X35	Y35	Z35	X36	Y36	Z36	X37	Y37	Z37	X38	Y38	Z38	X39	Y39	Z39	X40	Y40	Z40	X41	Y41	Z41	X42	Y42	Z42	X43	Y43	Z43	X44	Y44	Z44	X45	Y45	Z45	

36	0.350	1366.59924	-164.27879	1662.23535	1498.14685	-159.67252	1651.73596	1371.64319	-298.14990	1609.94763	1501.05005	-292.17712	1604.50842	1425.90015	-298.47540	1453.64258	1434.66016	-355.59164	1130.14966	1425.13025	-191.39648	1371.21106	1416.03552	-163.62585	1193.66443	1504.33752	-378.54257	1290.26550	1264.11780	-245.14496	1407.18091	1193.02893	-253.84219	1205.23376	1184.34497	-255.61378	1091.76147	1174.31348	-185.00681	958.59924	1228.96436	-86.58525	883.59070	1191.54553	-138.13327	850.92041	1203.45654	-69.17577	792.51355	1585.87036	-233.31213	1403.59326	1679.43420	-293.40125	1215.52258	1697.30957	-300.30463	1094.33496	1717.49011	-288.55597	975.45874	1684.75684	-234.20296	834.16034	1728.62927	-284.06235	838.76385	1729.20056	-250.54890	761.27679	1325.62097	-190.66747	955.93817	1544.59656	-180.57111	974.84460	1361.12280	-348.17505	986.03687	1526.93311	-332.77402	1001.67664	1280.09106	-223.57678	637.66638	1297.48315	-188.27170	479.00861	1303.07397	-375.46103	323.64380	1338.19287	-509.18433	216.39403	1384.96252	-545.78986	236.52278	1340.86462	-448.40170	84.99039	1604.49622	-198.34694	642.66510	1573.07996	-173.23532	520.55450	1558.52698	-220.17058	255.20024	1500.79932	-235.75467	72.86285	1454.39185	-274.49429	50.77491	1498.25635	-82.31629	38.43325	1429.36365	-261.79419	1702.20178															 
37	0.360	1366.78357	-150.49640	1663.77014	1498.40308	-145.64146	1653.48706	1372.16272	-284.49979	1612.10950	1501.42566	-278.30130	1606.86133	1426.95300	-285.31628	1455.37378	1435.93018	-342.39041	1132.19495	1425.88086	-178.31383	1373.15576	1417.00806	-150.34682	1195.65967	1506.28992	-364.92325	1292.34888	1265.07288	-232.99823	1409.02661	1194.35425	-242.73582	1207.13684	1185.76733	-246.98274	1093.79529	1174.22241	-181.13385	957.88550	1227.36926	-85.85703	877.79755	1190.10095	-139.13385	847.93384	1200.51367	-72.86493	786.35956	1586.54089	-219.57024	1405.93311	1680.69641	-276.99530	1217.33398	1698.57104	-282.05237	1096.14722	1718.57971	-266.75494	977.71283	1685.07263	-207.88995	838.38861	1729.22144	-257.76169	841.41724	1729.62524	-221.40604	764.98370	1327.05298	-176.41765	958.46979	1546.17578	-167.96538	976.42322	1361.46631	-334.36340	988.37762	1527.36853	-319.78604	1003.44659	1280.57361	-203.83813	641.20294	1298.45740	-164.30135	483.50003	1304.41455	-346.10327	322.33984	1339.49060	-475.92737	209.94244	1386.47266	-513.70258	227.72771	1340.94934	-407.17621	83.05771	1604.28101	-190.46887	642.65100	1573.30774	-167.73122	520.16400	1558.40820	-219.04774	255.51382	1500.60205	-235.67776	73.10384	1454.17444	-274.52362	51.28989	1498.51819	-82.33692	38.41369	1429.68872	-247.69925	1704.27905															 
38	0.370	1366.90161	-136.76451	1665.07959	1498.52026	-131.71573	1655.00647	1372.71985	-271.05542	1613.92297	1501.92285	-264.52377	1608.89282	1427.86182	-271.97162	1456.87439	1437.16528	-329.10803	1133.87891	1426.49719	-165.24985	1374.81384	1418.03455	-137.14743	1197.36401	1508.16138	-351.38138	1294.09961	1265.91907	-220.70998	1410.63269	1195.46753	-231.95132	1208.79126	1187.03552	-237.88895	1095.66089	1174.02246	-177.75456	956.90369	1225.55115	-85.55753	872.08014	1188.55933	-140.72765	845.24304	1197.47778	-76.94735	780.45966	1587.20227	-205.93617	1408.00989	1682.03003	-260.92896	1219.00049	1699.88049	-264.11438	1097.77368	1719.57178	-245.16779	979.93341	1685.58252	-181.09436	843.10712	1729.59143	-231.31549	843.92682	1729.81750	-192.40074	768.90894	1328.71606	-162.52599	960.86420	1547.46558	-155.36873	977.38751	1361.83765	-320.57794	990.45898	1527.90857	-307.07895	1004.92841	1280.86926	-184.20370	644.55981	1299.44250	-140.89543	487.96848	1305.77380	-316.84518	320.40570	1340.90454	-441.80884	202.36682	1388.03015	-480.66095	217.82785	1341.06445	-365.20581	80.61675	1604.59204	-182.48647	642.46729	1573.64453	-162.32385	519.52106	1558.35156	-217.18886	255.67401	1500.42505	-235.48840	73.38252	1454.03174	-274.58273	51.84264	1498.72473	-82.33016	38.40369	1429.95984	-233.73822	1706.07373															 
39	0.380	1366.92676	-123.17894	1666.06128	1498.62512	-117.87132	1656.29236	1373.11035	-257.58643	1615.37451	1502.34546	-250.84343	1610.62708	1428.72009	-258.73529	1458.10498	1438.36548	-315.95837	1135.32556	1427.17358	-152.24860	1376.17712	1419.09717	-123.96910	1198.78491	1509.87317	-338.05997	1295.53955	1266.74329	-208.31244	1411.80933	1196.20471	-221.48859	1210.08447	1188.04773	-229.06979	1097.14697	1173.65015	-174.61220	955.90796	1223.58264	-85.60325	866.42926	1187.05444	-142.05910	842.28937	1194.42493	-81.47921	774.82819	1587.89819	-192.41948	1409.81079	1683.34106	-245.15617	1220.51001	1701.26685	-246.51921	1099.25439	1720.54871	-223.80426	982.09088	1685.94934	-154.66083	847.98914	1729.82141	-205.12723	846.85107	1729.74561	-163.47878	773.18750	1330.08997	-148.64369	962.71606	1548.73425	-142.74712	977.91803	1362.22070	-306.73312	992.13129	1528.43408	-293.96652	1005.97729	1281.00061	-164.87517	647.81409	1300.43286	-117.96655	492.32809	1307.23376	-287.50446	317.90277	1342.51880	-406.82162	193.93707	1389.74146	-446.49481	207.06445	1342.01440	-323.25076	77.22046	1604.45789	-174.96187	642.06024	1574.04456	-156.74812	518.85181	1558.34937	-214.76189	255.74374	1500.06909	-235.36847	73.68353	1453.79590	-274.45435	52.31138	1498.85132	-82.31649	38.32552	1430.08838	-219.90402	1707.52686															 
